REM DIRINDEX 1\2,1\3,1\4,1\5,1\6
REM DIRNAME folder01,folder02,folder03,folder04,folder05,folder06
TITLE ""
FILE "Disc6Track09.mp3" MP3
  TRACK 01 AUDIO
    TITLE "3:cjc030_10649"
    INDEX 01 00:00:00
  TRACK 02 AUDIO
    TITLE "0:"
    INDEX 01 00:00:74
  TRACK 03 AUDIO
    TITLE "4:cjc030_10650"
    INDEX 01 00:01:09
  TRACK 04 AUDIO
    TITLE "0:"
    INDEX 01 00:02:53
  TRACK 05 AUDIO
    TITLE "5:cjc030_10651"
    INDEX 01 00:02:63
  TRACK 06 AUDIO
    TITLE "0:"
    INDEX 01 00:03:66
  TRACK 07 AUDIO
    TITLE "6:cjc030_10652"
    INDEX 01 00:04:05
  TRACK 08 AUDIO
    TITLE "0:"
    INDEX 01 00:08:66
  TRACK 09 AUDIO
    TITLE "3:cjc030_10653"
    INDEX 01 00:09:38
  TRACK 10 AUDIO
    TITLE "0:"
    INDEX 01 00:10:37
  TRACK 11 AUDIO
    TITLE "4:cjc030_10654"
    INDEX 01 00:10:49
  TRACK 12 AUDIO
    TITLE "0:"
    INDEX 01 00:12:38
  TRACK 13 AUDIO
    TITLE "5:cjc030_10655"
    INDEX 01 00:12:48
  TRACK 14 AUDIO
    TITLE "0:"
    INDEX 01 00:13:49
  TRACK 15 AUDIO
    TITLE "6:cjc030_10656"
    INDEX 01 00:13:61
  TRACK 16 AUDIO
    TITLE "0:"
    INDEX 01 00:16:18
  TRACK 17 AUDIO
    TITLE "3:cjc030_10657"
    INDEX 01 00:16:67
  TRACK 18 AUDIO
    TITLE "0:"
    INDEX 01 00:17:69
  TRACK 19 AUDIO
    TITLE "4:cjc030_10658"
    INDEX 01 00:18:07
  TRACK 20 AUDIO
    TITLE "0:"
    INDEX 01 00:19:15
  TRACK 21 AUDIO
    TITLE "5:cjc030_10659"
    INDEX 01 00:19:24
  TRACK 22 AUDIO
    TITLE "0:"
    INDEX 01 00:20:30
  TRACK 23 AUDIO
    TITLE "3:cjc030_10660"
    INDEX 01 00:21:08
  TRACK 24 AUDIO
    TITLE "0:"
    INDEX 01 00:22:07
  TRACK 25 AUDIO
    TITLE "4:cjc030_10661"
    INDEX 01 00:22:15
  TRACK 26 AUDIO
    TITLE "0:"
    INDEX 01 00:23:71
  TRACK 27 AUDIO
    TITLE "5:cjc030_10662"
    INDEX 01 00:24:04
  TRACK 28 AUDIO
    TITLE "0:"
    INDEX 01 00:25:03
  TRACK 29 AUDIO
    TITLE "6:cjc030_10663"
    INDEX 01 00:25:19
  TRACK 30 AUDIO
    TITLE "0:"
    INDEX 01 00:27:10
  TRACK 31 AUDIO
    TITLE "3:cjc030_10664"
    INDEX 01 00:27:57
  TRACK 32 AUDIO
    TITLE "0:"
    INDEX 01 00:28:66
  TRACK 33 AUDIO
    TITLE "4:cjc030_10665"
    INDEX 01 00:29:03
  TRACK 34 AUDIO
    TITLE "0:"
    INDEX 01 00:30:20
  TRACK 35 AUDIO
    TITLE "5:cjc030_10666"
    INDEX 01 00:30:28
  TRACK 36 AUDIO
    TITLE "0:"
    INDEX 01 00:31:43
  TRACK 37 AUDIO
    TITLE "3:cjc030_10667"
    INDEX 01 00:32:21
  TRACK 38 AUDIO
    TITLE "0:"
    INDEX 01 00:33:21
  TRACK 39 AUDIO
    TITLE "4:cjc030_10668"
    INDEX 01 00:33:30
  TRACK 40 AUDIO
    TITLE "0:"
    INDEX 01 00:36:09
  TRACK 41 AUDIO
    TITLE "5:cjc030_10669"
    INDEX 01 00:36:19
  TRACK 42 AUDIO
    TITLE "0:"
    INDEX 01 00:37:18
  TRACK 43 AUDIO
    TITLE "6:cjc030_10670"
    INDEX 01 00:37:28
  TRACK 44 AUDIO
    TITLE "0:"
    INDEX 01 00:39:13
  TRACK 45 AUDIO
    TITLE "3:cjc030_10671"
    INDEX 01 00:39:58
  TRACK 46 AUDIO
    TITLE "0:"
    INDEX 01 00:40:64
  TRACK 47 AUDIO
    TITLE "4:cjc030_10672"
    INDEX 01 00:40:73
  TRACK 48 AUDIO
    TITLE "0:"
    INDEX 01 00:42:65
  TRACK 49 AUDIO
    TITLE "5:cjc030_10673"
    INDEX 01 00:42:72
  TRACK 50 AUDIO
    TITLE "0:"
    INDEX 01 00:44:03
  TRACK 51 AUDIO
    TITLE "3:cjc030_10674"
    INDEX 01 00:44:54
  TRACK 52 AUDIO
    TITLE "0:"
    INDEX 01 00:45:59
  TRACK 53 AUDIO
    TITLE "4:cjc030_10675"
    INDEX 01 00:45:69
  TRACK 54 AUDIO
    TITLE "0:"
    INDEX 01 00:47:38
  TRACK 55 AUDIO
    TITLE "5:cjc030_10676"
    INDEX 01 00:47:46
  TRACK 56 AUDIO
    TITLE "0:"
    INDEX 01 00:48:55
  TRACK 57 AUDIO
    TITLE "6:cjc030_10677"
    INDEX 01 00:48:65
  TRACK 58 AUDIO
    TITLE "0:"
    INDEX 01 00:51:15
  TRACK 59 AUDIO
    TITLE "3:cjc030_10678"
    INDEX 01 00:51:62
  TRACK 60 AUDIO
    TITLE "0:"
    INDEX 01 00:52:65
  TRACK 61 AUDIO
    TITLE "4:cjc030_10679"
    INDEX 01 00:53:00
  TRACK 62 AUDIO
    TITLE "0:"
    INDEX 01 00:53:53
  TRACK 63 AUDIO
    TITLE "5:cjc030_10680"
    INDEX 01 00:53:60
  TRACK 64 AUDIO
    TITLE "0:"
    INDEX 01 00:54:66
  TRACK 65 AUDIO
    TITLE "6:cjc030_10681"
    INDEX 01 00:55:03
  TRACK 66 AUDIO
    TITLE "0:"
    INDEX 01 00:59:61
  TRACK 67 AUDIO
    TITLE "3:cjc030_10682"
    INDEX 01 01:00:33
  TRACK 68 AUDIO
    TITLE "0:"
    INDEX 01 01:01:44
  TRACK 69 AUDIO
    TITLE "4:cjc030_10683"
    INDEX 01 01:01:54
  TRACK 70 AUDIO
    TITLE "0:"
    INDEX 01 01:03:33
  TRACK 71 AUDIO
    TITLE "5:cjc030_10684"
    INDEX 01 01:03:39
  TRACK 72 AUDIO
    TITLE "0:"
    INDEX 01 01:04:52
  TRACK 73 AUDIO
    TITLE "6:cjc030_10685"
    INDEX 01 01:04:64
  TRACK 74 AUDIO
    TITLE "0:"
    INDEX 01 01:06:34
  TRACK 75 AUDIO
    TITLE "3:cjc030_10686"
    INDEX 01 01:07:04
  TRACK 76 AUDIO
    TITLE "0:"
    INDEX 01 01:08:13
  TRACK 77 AUDIO
    TITLE "4:cjc030_10687"
    INDEX 01 01:08:21
  TRACK 78 AUDIO
    TITLE "0:"
    INDEX 01 01:09:20
  TRACK 79 AUDIO
    TITLE "5:cjc030_10688"
    INDEX 01 01:09:28
  TRACK 80 AUDIO
    TITLE "0:"
    INDEX 01 01:10:39
  TRACK 81 AUDIO
    TITLE "3:cjc030_10689"
    INDEX 01 01:11:21
  TRACK 82 AUDIO
    TITLE "0:"
    INDEX 01 01:12:17
  TRACK 83 AUDIO
    TITLE "4:cjc030_10690"
    INDEX 01 01:12:28
  TRACK 84 AUDIO
    TITLE "0:"
    INDEX 01 01:13:28
  TRACK 85 AUDIO
    TITLE "5:cjc030_10691"
    INDEX 01 01:13:36
  TRACK 86 AUDIO
    TITLE "0:"
    INDEX 01 01:14:33
  TRACK 87 AUDIO
    TITLE "3:cjc030_10692"
    INDEX 01 01:15:13
  TRACK 88 AUDIO
    TITLE "0:"
    INDEX 01 01:16:24
  TRACK 89 AUDIO
    TITLE "4:cjc030_10693"
    INDEX 01 01:16:36
  TRACK 90 AUDIO
    TITLE "0:"
    INDEX 01 01:18:25
  TRACK 91 AUDIO
    TITLE "5:cjc030_10694"
    INDEX 01 01:18:33
  TRACK 92 AUDIO
    TITLE "0:"
    INDEX 01 01:19:48
  TRACK 93 AUDIO
    TITLE "6:cjc030_10695"
    INDEX 01 01:19:60
  TRACK 94 AUDIO
    TITLE "0:"
    INDEX 01 01:23:07
